<svg width="105" height="31" viewBox="0 0 105 31" fill="none" xmlns="http://www.w3.org/2000/svg">
<path d="M5.65821 8.43703C5.36853 8.50039 5.21464 8.76292 5.29611 9.0526C5.36853 9.32417 5.622 9.46901 5.89358 9.39659C6.14705 9.33322 6.31905 9.0526 6.25568 8.79913C6.19231 8.54566 5.92074 8.37366 5.65821 8.43703Z" fill="#455D5F"/>
<path d="M24.8039 10.9898C24.8039 4.23658 19.9065 0 12.0942 0H0V30.0091H7.45928V22.3778C7.46833 21.8256 7.58601 21.2734 7.7037 20.7122C8.02053 19.2094 7.93001 17.7339 7.17865 16.367C6.54497 15.2082 5.55825 14.5021 4.27279 14.2125C3.793 14.1038 3.30417 14.0043 2.83344 13.8685C1.19493 13.3977 0.43452 12.1666 0.0724191 10.6096C-0.00905362 10.2475 0.262521 10.166 0.515992 10.1026C1.2764 9.93061 2.02776 9.74051 2.79723 9.63188C3.68438 9.5142 4.309 9.07968 4.74352 8.30116C4.98794 7.86664 5.29572 7.45022 5.63067 7.07002C6.34582 6.25529 7.26917 5.83887 8.40074 5.82077C8.40979 5.16899 8.41885 4.56247 8.4279 3.9469C8.4279 3.82921 8.41884 3.71153 8.446 3.59385C8.50032 3.37659 8.618 3.32227 8.79 3.49427C8.83526 3.53953 8.86242 3.5848 8.89863 3.63006C10.7816 6.2915 12.5287 9.01631 13.8866 11.9946C14.6741 13.7146 15.2988 15.4798 15.5432 17.3627C15.7604 19.0375 15.6428 20.6488 14.828 22.1063C21.0562 21.0652 24.8039 17.0006 24.8039 10.9898Z" fill="#455D5F"/>
<path d="M42.7732 22.1787H30.4436C30.5432 23.4008 30.9234 24.3604 31.5933 25.0574C32.2632 25.7545 33.1413 26.0985 34.2185 26.0985C35.6579 26.0985 36.7804 25.4376 37.5951 24.125L42.5921 24.4871C41.2705 28.1805 38.4551 30.0182 34.1461 30.0182C31.7744 30.0182 29.8462 29.4207 28.3616 28.2167C26.2252 26.4877 25.166 24.0073 25.166 20.7756C25.166 18.0236 26.0079 15.7695 27.7007 14.0224C29.3935 12.2753 31.5662 11.3972 34.2276 11.3972C36.889 11.3972 38.9802 12.2753 40.5191 14.0405C42.049 15.8057 42.8184 18.2137 42.8184 21.2825C42.8094 21.6175 42.7913 21.9162 42.7732 22.1787ZM30.4074 18.44H37.5951C37.1425 16.3308 35.9657 15.2807 34.0737 15.2807C32.1274 15.2807 30.9053 16.3308 30.4074 18.44Z" fill="#455D5F"/>
<path d="M51.8981 12.1846H54.985V15.9958H51.8981V24.2607C51.8981 24.9034 52.0429 25.3561 52.3326 25.6095C52.6223 25.863 53.1383 25.9897 53.8806 25.9897C54.1884 25.9897 54.6501 25.9535 55.2475 25.8811V29.6922C53.5185 29.9095 52.3145 30.0181 51.6175 30.0181C49.7526 30.0181 48.4581 29.5383 47.7339 28.5788C47.1817 27.8636 46.9102 26.6596 46.9102 24.9849V15.9958H44.3936V12.1846H46.9102V6.9704H51.9071V12.1846H51.8981Z" fill="#455D5F"/>
<path d="M58.0088 12.5106H62.9696L62.8972 14.8099C64.0197 12.9451 65.6853 12.0037 67.8941 12.0037C70.1663 12.0037 71.7415 13.0266 72.6014 15.0544C73.896 13.0175 75.7065 12.0037 78.033 12.0037C79.8073 12.0037 81.1923 12.5468 82.1881 13.6241C83.1838 14.7013 83.6817 16.1859 83.6817 18.0779V30.0091H78.721V20.2052C78.721 18.8655 78.5037 17.9059 78.0782 17.3265C77.6437 16.7472 77.0191 16.4666 76.2134 16.4666C75.2991 16.4666 74.593 16.7743 74.077 17.399C73.561 18.0236 73.3075 18.956 73.3075 20.2052V30.0182H68.383V20.0604C68.383 17.6886 67.4958 16.5028 65.7215 16.5028C63.902 16.5028 62.9877 17.8335 62.9877 20.4949V30.0182H58.0269V12.5106H58.0088Z" fill="#455D5F"/>
<path d="M104.955 22.1787H92.6253C92.7249 23.4008 93.1051 24.3604 93.7749 25.0574C94.4448 25.7545 95.3229 26.0985 96.4002 26.0985C97.8395 26.0985 98.962 25.4376 99.7768 24.125L104.774 24.4871C103.452 28.1805 100.637 30.0182 96.3278 30.0182C93.956 30.0182 92.0278 29.4207 90.5432 28.2167C88.4068 26.4877 87.3477 24.0073 87.3477 20.7756C87.3477 18.0236 88.1895 15.7695 89.8824 14.0224C91.5752 12.2753 93.7478 11.3972 96.4092 11.3972C99.0707 11.3972 101.162 12.2753 102.701 14.0405C104.231 15.8057 105 18.2137 105 21.2825C104.991 21.6175 104.973 21.9162 104.955 22.1787ZM92.5891 18.44H99.7768C99.3241 16.3308 98.1473 15.2807 96.2553 15.2807C94.309 15.2807 93.087 16.3308 92.5891 18.44Z" fill="#455D5F"/>
</svg>
